<svg width="26" height="27" viewBox="0 0 26 27" fill="none" xmlns="http://www.w3.org/2000/svg">
<path fill-rule="evenodd" clip-rule="evenodd" d="M12.3861 0.210648C12.7472 -0.0702159 13.2529 -0.0702159 13.614 0.210648L24.864 8.96065C25.1076 9.1501 25.25 9.44141 25.25 9.75V23.5C25.25 24.4283 24.8813 25.3185 24.2249 25.9749C23.5685 26.6313 22.6783 27 21.75 27H4.25003C3.32177 27 2.43153 26.6313 1.77516 25.9749C1.11878 25.3185 0.750031 24.4283 0.750031 23.5V9.75C0.750031 9.44141 0.892503 9.1501 1.13609 8.96065L12.3861 0.210648ZM2.75003 10.2391V23.5C2.75003 23.8978 2.90807 24.2794 3.18937 24.5607C3.47067 24.842 3.85221 25 4.25003 25H21.75C22.1479 25 22.5294 24.842 22.8107 24.5607C23.092 24.2794 23.25 23.8978 23.25 23.5V10.2391L13 2.26686L2.75003 10.2391Z" fill="white"/>
<path fill-rule="evenodd" clip-rule="evenodd" d="M8.25003 13.5C8.25003 12.9477 8.69775 12.5 9.25003 12.5H16.75C17.3023 12.5 17.75 12.9477 17.75 13.5V26C17.75 26.5523 17.3023 27 16.75 27C16.1977 27 15.75 26.5523 15.75 26V14.5H10.25V26C10.25 26.5523 9.80232 27 9.25003 27C8.69775 27 8.25003 26.5523 8.25003 26V13.5Z" fill="white"/>
</svg>
