<svg width="23" height="27" viewBox="0 0 23 27" fill="none" xmlns="http://www.w3.org/2000/svg">
<path d="M2.3 0.5C1.03183 0.5 0 1.53183 0 2.8V24.3689C0 25.6371 1.03183 26.6689 2.3 26.6689H23V4.01568L19.4843 0.5H2.3ZM4.6 2.03333H18.4V22.0689H4.6V2.03333ZM2.3 2.03333H3.06667V22.0689H2.3C2.03126 22.0689 1.7733 22.1156 1.53333 22.2007V2.8C1.53333 2.37731 1.87731 2.03333 2.3 2.03333ZM21.4667 25.1356H2.3C1.87731 25.1356 1.53333 24.7916 1.53333 24.3689C1.53333 23.9462 1.87731 23.6022 2.3 23.6022H19.9333V3.11766L21.4667 4.65099V25.1356Z" fill="white"/>
<path d="M12.2667 12.6142V10.9724C14.7977 10.5988 16.8667 8.33463 16.8667 5.56001V3.26001H16.1C14.6681 3.26001 13.3176 3.83941 12.297 4.89117C11.9878 5.21021 11.7212 5.5596 11.5 5.93215C11.2788 5.5596 11.0123 5.21021 10.703 4.89117C9.6824 3.83941 8.33194 3.26001 6.90001 3.26001H6.13335V5.56001C6.13335 8.33381 8.20156 10.5986 10.7333 10.9724V12.6142C8.85961 12.8669 7.22605 14.0291 6.37612 15.7289L5.65955 17.1622H17.3405L16.6239 15.7289C15.775 14.0311 14.1424 12.8671 12.2667 12.6142ZM15.3333 4.87619V5.56001C15.3333 7.42475 13.9921 9.03659 12.2667 9.41271V8.7289C12.2667 6.86416 13.6079 5.25232 15.3333 4.87619ZM7.66668 5.56001V4.87619C9.39209 5.25253 10.7333 6.86416 10.7333 8.7289V9.41271C9.00794 9.03659 7.66668 7.42475 7.66668 5.56001ZM8.25507 15.6289C9.0407 14.6662 10.2185 14.0956 11.5 14.0956C12.7816 14.0956 13.9593 14.6662 14.745 15.6289H8.25507Z" fill="white"/>
<path d="M7.66666 18.6956H15.3333V20.2289H7.66666V18.6956Z" fill="white"/>
</svg>
